<svg id="Layer_5" enable-background="new 0 0 64 64" height="512" viewBox="0 0 64 64" width="512" xmlns="http://www.w3.org/2000/svg"><g><path d="m51 29c-1.91 0-3.513 1.347-3.907 3.14-1.212.385-2.093 1.522-2.093 2.86v.172c0 .801.313 1.555.879 2.121l1.121 1.121v5.587l-4.147-5.53c-2.102-2.803-5.301-4.659-8.777-5.094l-2.42-.303-.254-.508c2.678-.983 4.598-3.551 4.598-6.566v-.101c2.279-.465 4-2.484 4-4.899v-9.425c0-2.582-1.55-4.871-3.948-5.832l-1.23-.492c-.862-2.527-3.235-4.251-5.945-4.251h-7.377c-3.967 0-7.216 3.098-7.475 7h-.025v13c0 2.414 1.721 4.434 4 4.899v.101c0 3.015 1.92 5.583 4.598 6.566l-.24.479-.748.058c-7.071.545-12.61 6.527-12.61 13.619 0 4.582 2.295 8.789 6 11.299v4.979h11.646.264 12.09v-13.735l4.6 5.443c1.23 1.457 3.03 2.292 4.936 2.292 3.565 0 6.464-2.899 6.464-6.464v-17.536c0-2.206-1.794-4-4-4zm-4 6c0-.552.448-1 1-1h1v-1c0-1.103.897-2 2-2s2 .897 2 2v4h-4.586l-1.121-1.121c-.187-.187-.293-.444-.293-.707zm-11 .865v1.135c0 2.151-1.349 3.961-3.256 4.668.65-2.032 1.049-4.142 1.182-6.289.708.095 1.403.257 2.074.486zm-18 .191c.661-.292 1.353-.522 2.072-.687.133 2.151.533 4.265 1.185 6.3-1.908-.707-3.257-2.516-3.257-4.669zm9 4.944c.562 0 1.083-.165 1.533-.435l2.226.742c-.844 2.543-2.11 4.936-3.759 7.074-1.649-2.139-2.914-4.532-3.759-7.074l2.226-.742c.45.27.971.435 1.533.435zm-1-3c0-.552.448-1 1-1s1 .448 1 1-.448 1-1 1-1-.448-1-1zm5.845-1.561c-.112.995-.302 1.975-.536 2.944l-1.461-.487c.09-.285.152-.582.152-.896s-.062-.611-.152-.896zm-7.693 2.457-1.462.487c-.234-.969-.422-1.949-.533-2.944l1.995.665c-.09.285-.152.582-.152.896s.062.611.152.896zm-1.94 5.306c.741 1.686 1.657 3.294 2.745 4.795-1.55-.014-3.026-.757-3.957-1.998l-.68-.905zm9.573-.003 1.895 1.895-.68.906c-.928 1.237-2.399 1.979-3.944 1.997 1.087-1.5 1.989-3.113 2.729-4.798zm-3.507-25.199h-2.557c-.347-.595-.985-1-1.722-1h-4v-2.151c.486.099.987.151 1.501.151h5.5v-1.39c.794.949 2.081 1.39 4 1.39v-1.762c.637.846 1.602 1.489 3 1.693v2.069h-4c-.737 0-1.375.405-1.722 1zm-8.278 2v-1h4v2h-4zm10-1h4v1 1h-4zm6 3.816v-1.816-1-2.816c1.161.414 2 1.514 2 2.816s-.839 2.402-2 2.816zm-14.5-20.816h7.377c1.968 0 3.676 1.333 4.153 3.242l.124.496 2.154.862c1.635.655 2.692 2.215 2.692 3.975v5.45c-.584-.442-1.257-.773-2-.924v-2.101h-1c-2.479 0-3-1.632-3-3h-2c0 1.043.254 2.11.828 2.994-2.282-.029-2.828-.618-2.828-2.994h-2c0 1.251.191 2.228.579 2.985-2.066-.071-2.579-.7-2.579-2.985h-2c0 1.258.193 2.241.585 3h-1.085c-3.032 0-5.5-2.468-5.5-5.5s2.468-5.5 5.5-5.5zm-3.5 12.128v.973c-.743.152-1.416.482-2 .924v-3.444c.574.622 1.247 1.148 2 1.547zm-2 5.872c0-1.302.839-2.402 2-2.816v2.816 1 1.816c-1.161-.414-2-1.514-2-2.816zm4 5v-2h4c1.103 0 2-.897 2-2v-1h2v1c0 1.103.897 2 2 2h4v2c0 2.757-2.243 5-5 5h-4c-2.757 0-5-2.243-5-5zm5 7h4c.126 0 .248-.012.372-.019l.932 1.864-1.771.59c-.45-.27-.971-.435-1.533-.435s-1.083.165-1.533.435l-1.771-.59.931-1.864c.125.007.247.019.373.019zm-14 13.722c0-3.913 1.982-7.42 5.009-9.544.069 2.794 1.747 5.173 4.168 6.232l-2.497 2.497 1.721 2.293c1.314 1.753 3.408 2.8 5.599 2.8h1v2h-.172c-.756 0-1.469.277-2.022.784l-3.489-1.744c-2.046-1.022-3.317-3.079-3.317-5.366v-3.674h-2v3.674c0 3.05 1.694 5.791 4.422 7.155l3.118 1.559-2.068 3.102-2.487-1.088c-4.244-1.856-6.985-6.048-6.985-10.68zm6 12.424c.062.028.121.061.184.089l4.036 1.765h-4.22zm9.646 1.854c-.29 0-.572-.059-.838-.175l-3.476-1.521 2.445-3.668.344-.344c.187-.186.444-.292.707-.292h.172c.552 0 1 .448 1 1v.619l.845.421c.713.356 1.155 1.073 1.155 1.87 0 1.152-.938 2.09-2.09 2.09zm21.89-6c-1.316 0-2.559-.577-3.409-1.583l-6.127-7.251v-3.166h-2v18h-6.593c.368-.614.593-1.323.593-2.09 0-1.487-.787-2.831-2.07-3.558-.137-.621-.473-1.164-.93-1.575v-2.777h1c2.191 0 4.285-1.047 5.6-2.8l1.721-2.294-2.497-2.497c2.47-1.082 4.176-3.54 4.176-6.409v-.22c1.256.733 2.37 1.712 3.253 2.89l5.747 7.663v3.667h2v-12h4v11.536c0 2.461-2.003 4.464-4.464 4.464z"/><path d="m30.789 26.658.105-.211-1.789-.895-.105.212c-.381.762-1.147 1.236-2 1.236s-1.619-.474-2-1.236l-.105-.211-1.789.895.105.211c.722 1.444 2.174 2.341 3.789 2.341s3.067-.897 3.789-2.342z"/></g></svg>