<svg height="480pt" viewBox="0 0 480.03335 480" width="480pt" xmlns="http://www.w3.org/2000/svg"><path d="m8.03125 448.015625h24v24c0 4.417969 3.582031 8 8 8h336c4.417969 0 8-3.582031 8-8v-32h-16v24h-320v-16h184v-16h-216v-344h64c4.417969 0 8-3.582031 8-8v-64h248v152h16v-120h16v136h16v-144c0-4.417969-3.582031-8-8-8h-24v-24c0-4.417969-3.582031-8-8-8h-264c-.160156 0-.304688.0820312-.464844.097656-.726562.035157-1.445312.179688-2.132812.421875-.238282.070313-.46875.15625-.699219.25-.875.382813-1.675781.925782-2.359375 1.597656l-72 72c-.667969.679688-1.210938 1.476563-1.597656 2.347657-.113282.246093-.175782.496093-.265625.75-.230469.664062-.367188 1.355469-.40625 2.054687 0 .175782-.105469.328125-.105469.503906v359.976563c0 2.128906.847656 4.167969 2.355469 5.667969 1.507812 1.503906 3.550781 2.339844 5.675781 2.332031zm64-420.6875v44.6875h-44.6875zm0 0"/><path d="m248.03125 176.015625v-8h64v-40c-.015625-12.417969-9.507812-22.773437-21.878906-23.871094-.703125-.089843-1.410156-.132812-2.121094-.128906h-224c-13.253906 0-24 10.746094-24 24v256c0 13.257813 10.746094 24 24 24h120v-16h-80v-24h64v-16h-64v-24h56v-16h-56v-24h57.601562v-16h-57.601562v-24h72v-16h-72v-24h104v-16h-104v-24h128v8zm40.65625-55.941406c4.148438.316406 7.351562 3.78125 7.34375 7.941406v24h-48v-32.054687h39.664062c.328126.058593.660157.09375.992188.113281zm-224.65625-.058594h24v32h-32v-24c0-4.417969 3.582031-8 8-8zm24 272h-24c-4.417969 0-8-3.582031-8-8v-16h32zm0-40h-32v-24h32zm0-40h-32v-24h32zm0-40h-32v-24h32zm0-40h-32v-24h32zm0-40h-32v-24h32zm16-40v-32l128-.039063v32.039063zm0 0"/><path d="m120.03125 72.015625h64v16h-64zm0 0"/><path d="m200.03125 72.015625h32v16h-32zm0 0"/><path d="m120.03125 40.015625h112v16h-112zm0 0"/><path d="m413.6875 378.359375-1.023438 1.023437c35.003907-56.261718 21.496094-129.914062-31.195312-170.09375-52.691406-40.183593-127.292969-33.71875-172.289062 14.925782-44.996094 48.644531-45.636719 123.523437-1.476563 172.925781 44.160156 49.40625 118.640625 57.144531 172.007813 17.867187l57.695312 57.695313c9.753906 9.753906 25.5625 9.753906 35.3125 0 9.753906-9.75 9.753906-25.558594 0-35.308594zm-221.65625-66.34375c0-61.855469 50.144531-112 112-112s112 50.144531 112 112-50.144531 112-112 112c-61.828125-.066406-111.933594-50.171875-112-112zm263.03125 152c-2.378906.007813-4.660156-.9375-6.34375-2.621094l-56.6875-56.683593c4.355469-4.117188 8.414062-8.535157 12.152344-13.222657l57.214844 57.214844c2.566406 2.566406 3.335937 6.421875 1.949218 9.773437-1.386718 3.351563-4.65625 5.539063-8.285156 5.539063zm0 0"/><path d="m304.03125 216.015625c-53.019531 0-96 42.980469-96 96s42.980469 96 96 96 96-42.980469 96-96c-.054688-52.996094-43.003906-95.941406-96-96zm-32 96c0-17.671875 14.328125-32 32-32 17.675781 0 32 14.328125 32 32 0 17.675781-14.324219 32-32 32-17.671875 0-32-14.324219-32-32zm-9.304688 24.328125c-13.738281-5.265625-26.105468-13.582031-36.160156-24.328125 10.054688-10.742187 22.421875-19.0625 36.160156-24.328125-8.925781 14.992188-8.925781 33.667969 0 48.65625zm82.609376-48.65625c13.742187 5.265625 26.105468 13.585938 36.160156 24.328125-10.054688 10.746094-22.417969 19.0625-36.160156 24.328125 8.925781-14.988281 8.925781-33.664062 0-48.65625zm-41.304688-55.671875c35.578125.042969 66.859375 23.554687 76.800781 57.714844-20.609375-15.933594-45.78125-24.855469-71.824219-25.457031-3.292968-.34375-6.609374-.34375-9.902343 0-26.0625.59375-51.25 9.511718-71.875 25.457031 9.941406-34.160157 41.226562-57.671875 76.800781-57.714844zm0 160c-35.574219-.042969-66.859375-23.550781-76.800781-57.710937 20.613281 15.933593 45.78125 24.851562 71.824219 25.457031 3.292968.339843 6.613281.339843 9.90625 0 26.058593-.59375 51.246093-9.515625 71.871093-25.457031-9.941406 34.160156-41.222656 57.667968-76.800781 57.710937zm0 0"/><path d="m320.03125 312.015625c0 8.835937-7.164062 16-16 16s-16-7.164063-16-16 7.164062-16 16-16 16 7.164063 16 16zm0 0"/></svg>