<svg id="Capa_1" enable-background="new 0 0 511.752 511.752" height="512" viewBox="0 0 511.752 511.752" width="512" xmlns="http://www.w3.org/2000/svg"><g><path d="m180.438 112.001h27.261c2.896 0 5.532-1.667 6.774-4.282l5.345-11.252c1.823-3.837 4.98-6.864 8.891-8.526l4.069-1.729c.289-.122.569-.263.84-.421l24.82-14.451c1.396-.813 2.492-2.055 3.125-3.541l6.591-15.464c.522-1.224 1.718-2.015 3.08-2.015 3.341 0 6.32 1.997 7.591 5.087.566 1.377.853 2.83.853 4.318v17.062c0 4.186-.882 8.24-2.622 12.049l-3.748 8.204c-1.502 3.287-1.232 7.065.722 10.106 1.954 3.04 5.278 4.855 8.892 4.855h31.575c4.307 0 7.81 3.504 7.81 7.811 0 2.978-1.659 5.656-4.329 6.991-2.351 1.176-3.916 3.496-4.123 6.116-.208 2.621.972 5.158 3.109 6.689 1.792 1.283 2.819 3.276 2.819 5.469 0 2.758-1.73 5.277-4.305 6.271-2.424.936-4.192 3.059-4.671 5.613s.397 5.174 2.317 6.925c1.204 1.099 1.867 2.599 1.867 4.227 0 2.664-1.884 5.013-4.479 5.583-3.821.84-6.594 4.292-6.594 8.234 0 3.058 1.669 5.881 4.367 7.375 1.793.988 2.929 2.866 2.965 4.902.026 1.48-.55 2.897-1.625 3.991-1.145 1.165-2.74 1.833-4.376 1.833h-19.467c-4.142 0-7.5 3.357-7.5 7.5s3.358 7.5 7.5 7.5h19.467c5.635 0 11.13-2.304 15.077-6.321 3.917-3.987 6.021-9.232 5.922-14.769-.067-3.766-1.167-7.382-3.085-10.494 4.218-3.842 6.829-9.37 6.829-15.335 0-2.685-.526-5.32-1.515-7.765 3.942-4.001 6.308-9.474 6.308-15.271 0-3.761-.984-7.411-2.781-10.616 3.377-4.022 5.304-9.162 5.304-14.649 0-12.578-10.232-22.811-22.81-22.811h-24.681l.883-1.934c2.639-5.779 3.978-11.93 3.978-18.281v-17.06c0-3.454-.666-6.826-1.98-10.022-3.593-8.737-12.018-14.383-21.497-14.383-7.35 0-13.963 4.369-16.846 11.133l-5.616 13.176-22.261 12.961-3.636 1.546c-7.289 3.097-13.175 8.742-16.573 15.896l-3.311 6.97h-22.52c-4.142 0-7.5 3.357-7.5 7.5s3.358 7.499 7.5 7.499z"/><path d="m261.321 207.532c0-4.143-3.358-7.5-7.5-7.5h-27.572c-2.308 0-4.579-.62-6.565-1.793l-8.172-4.824c-1.155-.682-2.471-1.041-3.813-1.041h-27.261c-4.142 0-7.5 3.357-7.5 7.5s3.358 7.5 7.5 7.5h25.212l6.408 3.783c4.295 2.535 9.202 3.875 14.19 3.875h27.572c4.143 0 7.501-3.357 7.501-7.5z"/><path d="m426.907 496.752h-3.579v-59.983c0-4.143-3.358-7.5-7.5-7.5s-7.5 3.357-7.5 7.5v59.983h-37.054v-42.496c0-4.143-3.358-7.5-7.5-7.5s-7.5 3.357-7.5 7.5v42.496h-75.185c24.326-18.181 45.492-40.796 61.896-66.273l4.837-7.513 11.451 2.908c2.9.735 5.921.104 8.284-1.734 2.362-1.838 3.717-4.608 3.717-7.602v-24.764c0-4.552-.255-9.067-.716-13.542l31.3-24.513c4.192 9.298 6.469 19.528 6.469 30.124v20.963c0 4.143 3.358 7.5 7.5 7.5s7.5-3.357 7.5-7.5v-20.963c0-32.72-17.953-62.577-46.852-77.921l-49.4-26.229c-.009-.521-.069-1.048-.192-1.575l-4.218-18.156c42.813-23.598 71.885-69.175 71.885-121.419 0-76.393-62.15-138.543-138.543-138.543s-138.542 62.15-138.542 138.543c0 52.244 29.072 97.822 71.885 121.419l-4.218 18.156c-.123.528-.183 1.055-.192 1.576l-49.4 26.228c-28.899 15.343-46.852 45.2-46.852 77.921v112.909h-3.842c-4.142 0-7.5 3.357-7.5 7.5s3.358 7.5 7.5 7.5h342.062c4.142 0 7.5-3.357 7.5-7.5s-3.359-7.5-7.501-7.5zm-170.9-162.663c2.788 1.55 5.577 3.048 8.366 4.5l13.754 24.808-1.605 10.229h-39.497c-.027 0-.055 0-.082 0h-3.219l-1.605-10.229 13.047-23.533c3.614-1.844 7.228-3.767 10.841-5.775zm-12.057 54.537h24.114l6.208 70.291c-1.907 3.672-18.265 32.925-18.265 32.925s-16.358-29.253-18.265-32.925zm42.996 43.295-3.883-43.969c4.079-1.416 7.173-4.961 7.879-9.459l2.404-15.316c.259-1.65-.04-3.339-.85-4.8l-4.891-8.822c7.296 3.084 14.569 5.82 21.799 8.2l-.469 2.364c-4.896 24.696-12.267 48.717-21.989 71.802zm27.317-139.052c2.666 17.207 3.737 34.529 3.197 51.721-15.613-4.895-31.492-11.578-47.415-19.955zm-119.708 51.722c-.54-17.191.531-34.514 3.197-51.722l44.217 31.766c-15.922 8.377-31.802 15.06-47.414 19.956zm27.561 5.913-4.365 7.873c-.81 1.461-1.109 3.149-.85 4.8l2.404 15.315c.803 5.115 4.688 9.006 9.606 9.925l-3.842 43.504c-9.722-23.085-17.093-47.105-21.989-71.802l-.469-2.364c6.472-2.13 12.979-4.556 19.505-7.251zm134.158 59.133-9.99-2.538c-3.123-.79-6.406.499-8.152 3.209l-7.759 12.05c-13.35 20.732-30.047 39.451-49.121 55.2l.197-.352c20.05-35.644 34.248-74.057 42.199-114.171l.222-1.118c.206.017.412.041.618.041 1.547 0 3.074-.479 4.359-1.396 1.83-1.308 2.978-3.367 3.125-5.611.739-11.235.797-22.539.223-33.85l2.209 3.057c14.308 19.804 21.871 43.186 21.871 67.617v17.862zm37.965-69.003-26.514 20.765c-3.923-16.457-11.052-32.033-21.162-46.027l-9.787-13.546 32.667 17.344c9.979 5.299 18.38 12.69 24.796 21.464zm-261.774-202.091c0-68.122 55.421-123.543 123.542-123.543s123.543 55.421 123.543 123.543-55.421 123.543-123.542 123.543-123.543-55.421-123.543-123.543zm123.542 138.543c18.689 0 36.522-3.728 52.805-10.466l2.329 10.023-55.133 39.608-55.133-39.608 2.329-10.023c16.282 6.738 34.114 10.466 52.803 10.466zm-113.434 42.084 32.665-17.342-9.785 13.544c-10.111 13.994-17.24 29.57-21.162 46.027l-26.514-20.766c6.414-8.774 14.815-16.164 24.796-21.463zm-38.885 64.673c0-10.596 2.278-20.826 6.469-30.124l31.3 24.513c-.461 4.475-.716 8.99-.716 13.542v24.764c0 2.993 1.355 5.764 3.717 7.602 2.363 1.839 5.383 2.47 8.286 1.734l11.448-2.908 4.84 7.519c.288.446.583.888.879 1.328l.534.801c1.441 2.191 3.833 3.38 6.273 3.38 1.415 0 2.845-.399 4.115-1.235 3.46-2.275 4.421-6.927 2.145-10.387l-.607-.911c-.246-.367-.493-.734-.729-1.102l-7.759-12.051c-1.746-2.71-5.029-3.999-8.152-3.209l-9.99 2.538v-17.862c0-24.433 7.563-47.814 21.871-67.617l2.21-3.059c-.574 11.312-.518 22.616.221 33.852.148 2.244 1.295 4.304 3.125 5.611 1.286.918 2.812 1.396 4.359 1.396.206 0 .412-.024.618-.041l.222 1.118c7.951 40.114 22.149 78.527 42.199 114.171l.231.412c-10.456-8.612-20.178-18.112-29.073-28.418-2.707-3.135-7.442-3.483-10.578-.777s-3.484 7.442-.777 10.578c12.134 14.059 25.723 26.697 40.546 37.751h-75.173v-42.496c0-4.143-3.358-7.5-7.5-7.5s-7.5 3.357-7.5 7.5v42.496h-37.053v-112.909z"/></g></svg>