<svg id="Layer_1" enable-background="new 0 0 511.994 511.994" height="512" viewBox="0 0 511.994 511.994" width="512" xmlns="http://www.w3.org/2000/svg"><g id="XMLID_1142_"><g id="XMLID_639_"><path id="XMLID_1130_" d="m502.442 315.034c-.84-11.141-6.481-21.33-15.476-27.956-15.362-11.315-36.304-9.735-49.794 3.755l-32.438 32.437c-14.919 14.92-33.944 24.24-54.526 26.917 2.537-5.059 3.974-10.761 3.974-16.796 0-20.734-16.868-37.603-37.602-37.603h-61.568c-17.396-15.93-39.793-24.653-63.53-24.653-34.786 0-67.49 13.547-92.087 38.144l-29.881 29.881-6.568-3.792c-4.783-2.761-10.899-1.123-13.66 3.66l-38.5 66.684c-2.762 4.783-1.123 10.898 3.66 13.66l39.954 23.067c4.782 2.762 10.899 1.123 13.66-3.66 2.762-4.783 1.123-10.898-3.66-13.66l-31.293-18.067 28.5-49.363 140.782 81.28-28.5 49.363-31.556-18.219c-4.783-2.76-10.898-1.123-13.66 3.66s-1.123 10.898 3.66 13.66l40.216 23.219c1.575.909 3.294 1.342 4.991 1.342 3.456 0 6.817-1.794 8.669-5.002l38.5-66.684c1.297-2.246 1.662-4.904 1.036-7.416h112.559c42.001 0 81.488-16.355 111.187-46.055l41.842-41.843c7.899-7.898 11.948-18.819 11.109-29.96zm-25.252 15.819-41.842 41.843c-25.922 25.922-60.386 40.197-97.045 40.197h-141.081l-109.776-63.38 26.092-26.092c20.82-20.82 48.501-32.286 77.945-32.286 19.812 0 38.438 7.715 52.448 21.725 1.875 1.875 4.419 2.929 7.071 2.929h65.579c9.706 0 17.602 7.896 17.602 17.603 0 9.705-7.896 17.602-17.602 17.602h-76.019c-5.523 0-10 4.478-10 10s4.477 10 10 10h97.245c30.625 0 59.416-11.926 81.069-33.58l32.438-32.437c6.445-6.446 16.45-7.201 23.791-1.794 4.297 3.165 6.993 8.034 7.394 13.356.4 5.322-1.534 10.539-5.309 14.314z"/><path id="XMLID_1133_" d="m207.949 144.067 44.619 32.27-17.092 52.214c-2.853 8.717.098 17.832 7.517 23.223 7.42 5.39 17 5.379 24.409-.027l44.377-32.391 44.377 32.391c3.711 2.709 7.966 4.063 12.222 4.063 4.241 0 8.483-1.345 12.187-4.035 7.42-5.391 10.371-14.506 7.518-23.223l-17.092-52.214 44.619-32.27c7.423-5.368 10.396-14.469 7.575-23.184s-10.564-14.347-19.725-14.347h-55.086l-16.868-52.183c-2.819-8.719-10.562-14.354-19.727-14.354s-16.908 5.635-19.727 14.354l-16.868 52.183h-55.086c-9.161 0-16.903 5.631-19.724 14.347-2.821 8.715.152 17.815 7.575 23.183zm11.453-17.024c.164-.506.387-.506.696-.506h62.363c4.338 0 8.181-2.797 9.515-6.924l19.106-59.106c.095-.294.164-.507.696-.507.533 0 .602.213.697.507l19.106 59.106c1.334 4.127 5.177 6.924 9.515 6.924h62.363c.309 0 .533 0 .697.507.164.506-.017.637-.268.818l-50.533 36.546c-3.523 2.548-4.996 7.081-3.644 11.214l19.362 59.151c.096.294.166.506-.265.819s-.612.181-.862-.001l-50.273-36.693c-3.513-2.564-8.278-2.564-11.791 0l-50.272 36.693c-.251.183-.432.313-.862.001-.431-.313-.361-.525-.265-.819l19.362-59.151c1.353-4.133-.12-8.666-3.644-11.214l-50.533-36.546c-.249-.181-.43-.312-.266-.819z"/><path id="XMLID_1148_" d="m389.887 37h7v7c0 5.522 4.477 10 10 10s10-4.478 10-10v-7h7c5.523 0 10-4.478 10-10s-4.477-10-10-10h-7v-7c0-5.522-4.477-10-10-10s-10 4.478-10 10v7h-7c-5.523 0-10 4.478-10 10s4.477 10 10 10z"/><path id="XMLID_1155_" d="m135.332 206.333h7v7c0 5.522 4.477 10 10 10s10-4.478 10-10v-7h7c5.523 0 10-4.478 10-10s-4.477-10-10-10h-7v-7c0-5.522-4.477-10-10-10s-10 4.478-10 10v7h-7c-5.523 0-10 4.478-10 10s4.477 10 10 10z"/><path id="XMLID_1156_" d="m98.368 446.28c-2.64 0-5.21 1.06-7.07 2.92-1.87 1.869-2.93 4.449-2.93 7.08 0 2.63 1.06 5.21 2.93 7.069 1.86 1.86 4.43 2.92 7.07 2.92 2.63 0 5.21-1.06 7.07-2.92 1.86-1.859 2.93-4.439 2.93-7.069 0-2.631-1.07-5.211-2.93-7.08-1.86-1.86-4.44-2.92-7.07-2.92z"/></g></g></svg>