<?xml version="1.0"?>
<svg xmlns="http://www.w3.org/2000/svg" width="512" height="512" viewBox="0 0 512 512"><g><path d="M480,48H280V32a8,8,0,0,0-8-8H240a8,8,0,0,0-8,8V48H32A24.032,24.032,0,0,0,8,72V320a24.032,24.032,0,0,0,24,24h86.03L89.58,472H80a8,8,0,0,0,0,16H432a8,8,0,0,0,0-16h-9.58L393.97,344H480a24.032,24.032,0,0,0,24-24V72A24.032,24.032,0,0,0,480,48ZM248,40h16v8H248ZM121.58,472H105.97l28.45-128h15.61Zm16.39,0,28.45-128H345.58l28.45,128Zm268.06,0H390.42L361.97,344h15.61ZM488,320a8.011,8.011,0,0,1-8,8H32a8.011,8.011,0,0,1-8-8V72a8.011,8.011,0,0,1,8-8H480a8.011,8.011,0,0,1,8,8Z"/><path d="M464,472h-8a8,8,0,0,0,0,16h8a8,8,0,0,0,0-16Z"/><path d="M320,72H192a8,8,0,0,0-8,8V192a8,8,0,0,0,8,8H320a8,8,0,0,0,8-8V80A8,8,0,0,0,320,72Zm-8,112H200V88H312Z"/><path d="M168,120H40a8,8,0,0,0-8,8V312a8,8,0,0,0,8,8H168a8,8,0,0,0,8-8V128A8,8,0,0,0,168,120Zm-8,184H48V136H160Z"/><path d="M472,72H344a8,8,0,0,0-8,8v72a8,8,0,0,0,8,8H472a8,8,0,0,0,8-8V80A8,8,0,0,0,472,72Zm-8,72H352V88H464Z"/><path d="M320,280H192a8,8,0,0,0-8,8v24a8,8,0,0,0,8,8H320a8,8,0,0,0,8-8V288A8,8,0,0,0,320,280Zm-8,24H200v-8H312Z"/><path d="M344,224h64a8,8,0,0,0,8-8V176a8,8,0,0,0-8-8H344a8,8,0,0,0-8,8v40A8,8,0,0,0,344,224Zm8-40h48v24H352Z"/><path d="M40,112H71a8,8,0,0,0,8-8V80a8,8,0,0,0-8-8H40a8,8,0,0,0-8,8v24A8,8,0,0,0,40,112Zm8-24H63v8H48Z"/><path d="M168,72H96a8,8,0,0,0,0,16h72a8,8,0,0,0,0-16Z"/><path d="M120,112a8,8,0,0,0,0-16H96a8,8,0,0,0,0,16Z"/><path d="M152,112a8,8,0,0,0,0-16h-8a8,8,0,0,0,0,16Z"/><path d="M320,208H192a8,8,0,0,0,0,16H320a8,8,0,0,0,0-16Z"/><path d="M320,232H192a8,8,0,0,0,0,16H320a8,8,0,0,0,0-16Z"/><path d="M192,272h96a8,8,0,0,0,0-16H192a8,8,0,0,0,0,16Z"/><path d="M320,256h-8a8,8,0,0,0,0,16h8a8,8,0,0,0,0-16Z"/><path d="M472,232H344a8,8,0,0,0,0,16H472a8,8,0,0,0,0-16Z"/><path d="M472,280H344a8,8,0,0,0,0,16H472a8,8,0,0,0,0-16Z"/><path d="M344,272h96a8,8,0,0,0,0-16H344a8,8,0,0,0,0,16Z"/><path d="M472,256h-8a8,8,0,0,0,0,16h8a8,8,0,0,0,0-16Z"/><path d="M440,304H344a8,8,0,0,0,0,16h96a8,8,0,0,0,0-16Z"/><path d="M472,304h-8a8,8,0,0,0,0,16h8a8,8,0,0,0,0-16Z"/><path d="M472,168H432a8,8,0,0,0-8,8v40a8,8,0,0,0,8,8h40a8,8,0,0,0,8-8V176A8,8,0,0,0,472,168Zm-8,40H440V184h24Z"/></g></svg>
