<svg id="Capa_1" enable-background="new 0 0 512 512" height="512" viewBox="0 0 512 512" width="512" xmlns="http://www.w3.org/2000/svg"><g><path d="m50.058 200.847c4.125-.304 7.223-3.896 6.918-8.02l-10.311-139.703c-.08-1.087.501-1.763.854-2.07s1.104-.785 2.17-.552l29.429 6.44c13.145 2.877 26.653 4.335 40.146 4.335 40.619 0 79.237-12.806 111.68-37.033l10.457-7.809c2.639-1.97 6.325-1.97 8.963 0l10.457 7.809c6.515 4.866 13.383 9.336 20.413 13.288 3.605 2.026 8.173.747 10.199-2.858 2.027-3.606.748-8.172-2.858-10.199-6.469-3.637-12.791-7.752-18.791-12.233l-10.457-7.809c-7.915-5.911-18.973-5.911-26.889 0l-10.458 7.809c-29.834 22.279-65.353 34.055-102.717 34.055-12.418 0-24.848-1.342-36.944-3.989l-29.429-6.44c-5.439-1.188-10.978.219-15.188 3.87-4.209 3.651-6.388 8.931-5.978 14.488l10.31 139.702c.291 3.938 3.575 6.939 7.462 6.939.187.001.374-.006.562-.02z"/><path d="m315.285 52.394c18.367 5.894 37.618 8.883 57.216 8.883 13.534 0 27.077-1.466 40.252-4.358l29.361-6.444c1.063-.234 1.815.244 2.168.55.354.306.935.98.858 2.066l-14.441 203.21c-.294 4.126 2.814 7.709 6.94 8.002.181.013.36.02.539.02 3.895 0 7.183-3.014 7.463-6.959l14.441-203.21c.394-5.551-1.793-10.821-6.003-14.46s-9.741-5.043-15.176-3.849l-29.361 6.444c-12.122 2.66-24.584 4.01-37.04 4.01-18.043 0-35.753-2.748-52.639-8.166-3.935-1.264-8.156.904-9.42 4.843-1.265 3.937.903 8.154 4.842 9.418z"/><path d="m245.903 156.298c-41.714 0-75.651 33.936-75.651 75.65s33.937 75.65 75.651 75.65 75.65-33.936 75.65-75.65-33.936-75.65-75.65-75.65zm0 14.98c33.453 0 60.67 27.217 60.67 60.67 0 9.688-2.295 18.846-6.35 26.978-6.411-7.378-14.778-12.722-24.137-15.412 3.368-5.497 5.246-11.892 5.246-18.498 0-19.535-15.893-35.428-35.428-35.428s-35.428 15.893-35.428 35.428c0 6.606 1.878 13.001 5.246 18.498-9.36 2.69-17.727 8.034-24.138 15.413-4.056-8.132-6.35-17.29-6.35-26.978-.002-33.454 27.215-60.671 60.669-60.671zm0 121.34c-18.118 0-34.395-7.993-45.522-20.627 6.632-9.647 17.534-15.477 29.454-15.477 3.918.442 7.964-1.478 9-5.5.895-3.249-.49-6.696-3.384-8.422-6.26-3.734-9.997-10.304-9.997-17.576 0-11.275 9.173-20.449 20.449-20.449 11.275 0 20.449 9.173 20.449 20.449 0 7.271-3.737 13.842-9.997 17.576-2.894 1.726-4.279 5.173-3.384 8.422 1.036 4.022 5.081 5.942 9 5.5 11.92 0 22.822 5.83 29.454 15.477-11.127 12.634-27.404 20.627-45.522 20.627z"/><path d="m463.775 313.937 14.453-16.795c2.698-3.135 2.344-7.864-.792-10.563-3.135-2.697-7.864-2.344-10.563.792l-13.155 15.287c-15.08-14.174-35.353-22.885-57.633-22.885-5.907 0-11.672.618-17.24 1.78l11.238-158.125c.229-3.222-.918-6.409-3.149-8.745-3.69-4.22-9.398-3.547-14.433-3.473-42.087 0-83.323-11.119-119.25-32.156-4.543-2.661-10.19-2.661-14.736 0-35.927 21.037-77.163 32.156-119.251 32.156-4.965-.1-10.586-.649-14.206 3.494-2.228 2.342-3.37 5.535-3.132 8.761l11.802 159.925c3.521 47.713 29.782 91.434 70.248 116.956l53.715 33.878c2.506 1.581 5.382 2.372 8.258 2.372 2.861 0 5.723-.783 8.221-2.349l53.955-33.822c3.165-1.984 6.265-4.113 9.29-6.342 6.133 15.99 16.998 29.647 30.884 39.248-4.429 3.318-8.988 6.477-13.652 9.401l-84.812 53.166c-2.424 1.52-5.555 1.516-7.975-.011l-84.52-53.307c-53.807-33.936-88.727-92.072-93.408-155.515l-4.389-59.471c-.304-4.125-3.892-7.227-8.02-6.918-4.125.304-7.223 3.895-6.918 8.02l4.389 59.471c5.03 68.163 42.546 130.623 100.356 167.084l84.521 53.307c3.639 2.295 7.812 3.443 11.987 3.443 4.153 0 8.308-1.137 11.934-3.41l84.813-53.166c6.883-4.314 13.561-9.085 19.925-14.166 10.289 4.487 21.634 6.992 33.557 6.992 46.449 0 84.238-37.789 84.238-84.238-.003-18.742-6.16-36.068-16.55-50.076zm-163.606 73.795-53.955 33.823c-.162.101-.37.101-.532-.001l-53.716-33.878c-36.464-22.997-60.128-62.394-63.3-105.388l-11.521-156.107c.708.006 1.415.009 2.118.009 44.666 0 88.446-11.789 126.618-34.092 38.173 22.303 81.953 34.092 126.619 34.092.787 0 1.577-.004 2.368-.011 0 0-11.304 158.659-11.466 160.195-30.264 12.787-51.558 42.772-51.558 77.638 0 4.938.452 9.77 1.271 14.478-4.13 3.323-8.47 6.436-12.946 9.242zm95.915 45.538c-38.189 0-69.259-31.069-69.259-69.258s31.069-69.258 69.259-69.258c18.553 0 35.411 7.347 47.857 19.266l-50.424 58.597-28.423-26.744c-3.014-2.835-7.753-2.69-10.588.322-2.835 3.013-2.69 7.753.322 10.588l34.126 32.11c2.968 2.907 8.168 2.629 10.81-.57l53.941-62.683c7.345 10.992 11.637 24.189 11.637 38.373.001 38.188-31.068 69.257-69.258 69.257z"/></g></svg>